<svg width="10" height="10" viewBox="0 0 10 10" fill="none" xmlns="http://www.w3.org/2000/svg">
<path d="M5.7208 1.46257L6.45413 2.92923C6.55413 3.1334 6.8208 3.32923 7.0458 3.36673L8.37496 3.58757C9.22496 3.72923 9.42496 4.3459 8.81246 4.95423L7.77913 5.98757C7.60413 6.16257 7.50829 6.50007 7.56246 6.74173L7.8583 8.0209C8.09163 9.0334 7.55413 9.42507 6.6583 8.8959L5.41246 8.1584C5.18746 8.02507 4.81663 8.02507 4.58746 8.1584L3.34163 8.8959C2.44996 9.42507 1.9083 9.02923 2.14163 8.0209L2.43746 6.74173C2.49163 6.50007 2.3958 6.16257 2.2208 5.98757L1.18746 4.95423C0.579129 4.3459 0.774962 3.72923 1.62496 3.58757L2.95413 3.36673C3.17496 3.32923 3.44163 3.1334 3.54163 2.92923L4.27496 1.46257C4.67496 0.666734 5.32496 0.666734 5.7208 1.46257Z" fill="#5436F8"/>
</svg>
