<svg width="18" height="16" viewBox="0 0 18 16" fill="none" xmlns="http://www.w3.org/2000/svg">
<path d="M17.8417 7.54375C16.2412 4.23719 13.0726 2 9.44444 2C5.8163 2 2.6468 4.23875 1.04715 7.54406C0.979635 7.68547 0.944458 7.8417 0.944458 8.00016C0.944458 8.15861 0.979635 8.31484 1.04715 8.45625C2.64769 11.7628 5.8163 14 9.44444 14C13.0726 14 16.2421 11.7612 17.8417 8.45594C17.9092 8.31453 17.9444 8.1583 17.9444 7.99984C17.9444 7.84139 17.9092 7.68516 17.8417 7.54375ZM9.44444 12.5C8.60387 12.5 7.78218 12.2361 7.08327 11.7416C6.38436 11.2471 5.83963 10.5443 5.51795 9.72208C5.19628 8.89981 5.11212 7.99501 5.2761 7.12209C5.44009 6.24918 5.84486 5.44736 6.43924 4.81802C7.03361 4.18868 7.79089 3.7601 8.61531 3.58647C9.43973 3.41283 10.2943 3.50195 11.0708 3.84254C11.8474 4.18314 12.5112 4.75991 12.9782 5.49993C13.4452 6.23995 13.6944 7.10998 13.6944 8C13.6947 8.59103 13.585 9.17632 13.3715 9.72242C13.158 10.2685 12.845 10.7647 12.4503 11.1826C12.0555 11.6005 11.5869 11.932 11.0712 12.158C10.5554 12.3841 10.0026 12.5003 9.44444 12.5ZM9.44444 5C9.19155 5.00374 8.94028 5.04358 8.69744 5.11844C8.89761 5.40646 8.99367 5.7609 8.96819 6.11748C8.94272 6.47406 8.79739 6.80917 8.55858 7.06203C8.31977 7.31489 8.00328 7.46876 7.66651 7.49574C7.32974 7.52271 6.99499 7.42101 6.72297 7.20906C6.56807 7.81331 6.59603 8.45377 6.80291 9.04031C7.0098 9.62685 7.38519 10.1299 7.87625 10.4787C8.36732 10.8275 8.94932 11.0045 9.54035 10.9847C10.1314 10.965 10.7017 10.7495 11.171 10.3685C11.6403 9.9876 11.9849 9.46044 12.1564 8.86125C12.3279 8.26205 12.3177 7.62099 12.127 7.0283C11.9364 6.43561 11.5751 5.92114 11.0939 5.55728C10.6126 5.19343 10.0358 4.99853 9.44444 5Z" fill="#D6CCCC"/>
</svg>
