<svg width="17" height="17" viewBox="0 0 17 17" fill="none" xmlns="http://www.w3.org/2000/svg">
<g clip-path="url(#clip0_13_198)">
<path d="M11.1562 0.53125V1.59375" stroke="#D6CCCC" stroke-width="2" stroke-linecap="round" stroke-linejoin="round"/>
<path d="M13.8125 1.39587L13.2812 2.26646" stroke="#D6CCCC" stroke-width="2" stroke-linecap="round" stroke-linejoin="round"/>
<path d="M15.6493 3.71875L14.6505 4.04082" stroke="#D6CCCC" stroke-width="2" stroke-linecap="round" stroke-linejoin="round"/>
<path d="M5.54759 6.57419L5.16708 5.91013C5.00857 5.63555 4.74748 5.4352 4.44125 5.35313C4.13501 5.27106 3.80872 5.314 3.53415 5.47251C3.25958 5.63102 3.05922 5.89211 2.97715 6.19834C2.89508 6.50457 2.93802 6.83087 3.09653 7.10544L4.35825 9.29087" stroke="#D6CCCC" stroke-width="2" stroke-linecap="round" stroke-linejoin="round"/>
<path d="M7.27479 9.56252L5.54823 6.57424C5.46632 6.43819 5.41234 6.28718 5.38944 6.13003C5.36655 5.97289 5.37519 5.81275 5.41488 5.65899C5.45457 5.50522 5.5245 5.3609 5.62058 5.23447C5.71667 5.10803 5.83699 5.002 5.97451 4.92259C6.11203 4.84317 6.264 4.79196 6.42154 4.77193C6.57908 4.75191 6.73902 4.76347 6.89204 4.80596C7.04506 4.84844 7.18808 4.92099 7.31274 5.01937C7.4374 5.11775 7.54121 5.23998 7.61811 5.37893L10.0386 9.56252" stroke="#D6CCCC" stroke-width="2" stroke-linecap="round" stroke-linejoin="round"/>
<path d="M6.77348 3.918L6.39364 3.25393C6.31515 3.11798 6.21066 2.99882 6.08612 2.90325C5.96158 2.80768 5.81944 2.73757 5.66781 2.69693C5.51618 2.6563 5.35802 2.64593 5.20238 2.66641C5.04674 2.68689 4.89666 2.73783 4.76071 2.81632C4.62476 2.8948 4.50559 2.9993 4.41002 3.12384C4.31445 3.24837 4.24435 3.39052 4.20371 3.54215C4.16307 3.69378 4.1527 3.85193 4.17318 4.00757C4.19367 4.16321 4.24461 4.31329 4.32309 4.44925L5.16712 5.91018" stroke="#D6CCCC" stroke-width="2" stroke-linecap="round" stroke-linejoin="round"/>
<path d="M7.61747 5.37893L6.77345 3.91799C6.69154 3.78194 6.63756 3.63093 6.61466 3.47378C6.59177 3.31664 6.60041 3.1565 6.6401 3.00274C6.67979 2.84897 6.74972 2.70465 6.8458 2.57822C6.94189 2.45178 7.06221 2.34575 7.19973 2.26634C7.33725 2.18692 7.48922 2.13571 7.64676 2.11568C7.8043 2.09566 7.96424 2.10722 8.11726 2.14971C8.27028 2.19219 8.4133 2.26474 8.53796 2.36312C8.66262 2.4615 8.76643 2.58373 8.84333 2.72268L11.3004 6.97268" stroke="#D6CCCC" stroke-width="2" stroke-linecap="round" stroke-linejoin="round"/>
<path d="M13.2148 12.4684C13.9402 11.7218 14.402 10.7588 14.5303 9.72583C14.6585 8.69282 14.4461 7.64617 13.9254 6.74485L12.5249 4.31638C12.4464 4.18042 12.3419 4.06126 12.2173 3.96569C12.0928 3.87012 11.9507 3.80001 11.799 3.75938C11.4928 3.67731 11.1665 3.72025 10.8919 3.87876C10.6174 4.03727 10.417 4.29836 10.3349 4.60459C10.2529 4.91082 10.2958 5.23712 10.4543 5.51169" stroke="#D6CCCC" stroke-width="2" stroke-linecap="round" stroke-linejoin="round"/>
<path d="M5.43267 11.1563L4.08993 8.83205C3.93142 8.55748 3.67033 8.35712 3.3641 8.27505C3.05787 8.19298 2.73157 8.23593 2.457 8.39443C2.18243 8.55294 1.98207 8.81403 1.9 9.12027C1.81793 9.4265 1.86088 9.75279 2.01938 10.0274L2.65622 11.129L4.35821 14.0781C4.99225 15.1763 6.03657 15.9777 7.26144 16.3059C8.48631 16.6341 9.7914 16.4623 10.8896 15.8283C11.9878 15.1942 12.7891 14.1499 13.1174 12.9251C13.4456 11.7002 13.2738 10.3951 12.6397 9.2969L11.2983 6.97268C11.2236 6.82983 11.1208 6.70358 10.996 6.60151C10.8712 6.49944 10.727 6.42367 10.5722 6.37875C10.4174 6.33384 10.2551 6.3207 10.095 6.34014C9.93501 6.35958 9.78057 6.41119 9.641 6.49187C9.50142 6.57255 9.37962 6.68062 9.2829 6.8096C9.18618 6.93857 9.11654 7.08577 9.07819 7.24236C9.03984 7.39894 9.03355 7.56166 9.05972 7.72073C9.08588 7.8798 9.14395 8.03194 9.23044 8.16799" stroke="#D6CCCC" stroke-width="2" stroke-linecap="round" stroke-linejoin="round"/>
</g>
<defs>
<clipPath id="clip0_13_198">
<rect width="17" height="17" fill="white"/>
</clipPath>
</defs>
</svg>
