<svg width="24" height="24" viewBox="0 0 24 24" fill="none" xmlns="http://www.w3.org/2000/svg">
<path fill-rule="evenodd" clip-rule="evenodd" d="M9.38258 3.33712C9.38258 3.1478 9.45778 2.96624 9.59165 2.83237C9.72552 2.6985 9.90709 2.62329 10.0964 2.62329H13.9035C14.0928 2.62329 14.2744 2.6985 14.4083 2.83237C14.5422 2.96624 14.6174 3.1478 14.6174 3.33712C14.6174 3.52645 14.5422 3.70801 14.4083 3.84188C14.2744 3.97575 14.0928 4.05096 13.9035 4.05096H10.0964C9.90709 4.05096 9.72552 3.97575 9.59165 3.84188C9.45778 3.70801 9.38258 3.52645 9.38258 3.33712ZM20.566 13.8067C20.566 14.9316 20.3444 16.0455 19.9139 17.0848C19.4834 18.124 18.8525 19.0683 18.057 19.8638C17.2616 20.6592 16.3173 21.2902 15.278 21.7206C14.2388 22.1511 13.1249 22.3727 12 22.3727C10.8751 22.3727 9.76117 22.1511 8.7219 21.7206C7.68262 21.2902 6.73831 20.6592 5.94289 19.8638C5.14746 19.0683 4.51649 18.124 4.08601 17.0848C3.65553 16.0455 3.43396 14.9316 3.43396 13.8067C3.43396 11.5348 4.33645 9.35605 5.94289 7.74961C7.54932 6.14317 9.72812 5.24068 12 5.24068C14.2718 5.24068 16.4506 6.14317 18.057 7.74961C19.6635 9.35605 20.566 11.5348 20.566 13.8067ZM12.9765 11.2131C12.7328 11.0442 12.484 10.883 12.2303 10.7296C11.209 10.109 10.6989 9.79875 10.2411 10.1423C9.78423 10.485 9.74235 11.2045 9.65859 12.6436C9.63575 13.05 9.62052 13.4488 9.62052 13.8067C9.62052 14.1646 9.63575 14.5634 9.65859 14.9698C9.74235 16.4089 9.78423 17.1274 10.2411 17.471C10.6989 17.8146 11.21 17.5043 12.2303 16.8838C12.4949 16.7229 12.7509 16.5592 12.9765 16.4003C13.2335 16.2194 13.5142 16.0024 13.7969 15.7721C14.8201 14.9374 15.3312 14.5205 15.3312 13.8067C15.3312 13.0929 14.8201 12.676 13.7969 11.8413C13.5142 11.6109 13.2344 11.3939 12.9765 11.2131Z" fill="white"/>
</svg>
